<?xml version="1.0" encoding="utf-8"?>

<svg version="1.1" xmlns="http://www.w3.org/2000/svg" xmlns:xlink="http://www.w3.org/1999/xlink" 
	x="0px" y="0px" viewBox="0 0 201.3 90.7" style="enable-background:new 0 0 201.3 90.7;" xml:space="preserve">

<g>
<path id="logoB" style="fill: #b91e23"
	d="M58.3,64.7v-2c0-5.2-1.7-9.8-4.7-13.2c-1.8,1.2-3.7,2.3-5.9,3.2
	c-0.9,0.4-1.8,0.7-2.7,1c1.9,2.6,2.6,5.7,2.6,9v2c0,12.6-9,15.7-23.4,15.7c-4.1,0-8.3-0.3-12.1-0.5V48c0,0,14.7,0.1,16,0
	c1.6,0,3-0.1,4.3-0.2l0.8-0.1c11.2-1,17.5-5.4,21.2-10.8c0,0,0,0,0-0.1c0,0,0-0.1,0.1-0.1c0.6-0.9,1.1-1.8,1.4-2.5l0,0
	c1.2-2.6,1.8-5.5,1.8-8.7v-1.9l0-0.2C57.7,6.1,42.2,1.2,23.7,1.2h0C16.1,1.2,9,1.7,5.2,2.2C2.7,2.4,1.5,3.8,1.5,6.5v77.6
	c0,2.9,1.2,4,3.8,4.3c4.4,0.7,11.3,1,19,1C42.5,89.4,58.3,84.3,58.3,64.7 M12.2,39.5V10.6c3.3-0.1,7.6-0.4,11.5-0.4
	c14.2,0,23.5,2.3,23.5,13.5v1.9c0,7.3-3.6,13.9-17.1,13.9L12.2,39.5L12.2,39.5z"
/>

<path id="logoR" style="fill: #b91e23"
	d="M132.2,87.1c0-0.3-0.1-0.7-0.4-1.1
	l-26-43.5c-2.7,0.5-5.9,0.8-9.5,0.8c-2.7,0-7.7-0.1-12.8-0.2V11.1c2.8-0.4,9.2-0.4,12.8-0.4c14.6,0,22.1,3.8,22.1,15.5v0.8
	c0,5.7-1.6,9.6-4.7,12.1l4.8,8.1c6.3-4,10.4-10.6,10.4-20.1v-0.8c0-18.9-14.2-25-32.6-25c-6.8,0-15.5,0.4-20.5,0.9
	C73.7,2.4,73,3.1,73,4.7v81.6c0,1.3,0.9,2.3,2.1,2.3h6.3c1.3,0,2.1-1.2,2.1-2.3V52c6.2,0.2,9,0.3,12.8,0.3h2h1.1l20.8,34.7
	c0.9,1.5,1.6,1.5,3,1.5h7.5C131.6,88.6,132.2,87.9,132.2,87.1 "
/>

<path id="logoZ" style="fill: #b91e23"
	d="M199.9,86.5V81c0-1.3-1.1-2-2.3-2H164l-6.6,9.6h40.1C198.8,88.6,199.9,87.7,199.9,86.5 M196.5,16.6
	c1.2-1.8,1.9-4.8,1.9-6.9c0-6.4-3.4-7.7-9.9-7.7H147c-1.3,0-2.3,0.8-2.3,2v5.5c0,1.3,1.2,2,2.3,2h38.7c0.7,0,1.2,0.4,1.2,0.8
	c0,0.2-0.1,0.6-0.4,0.9l-41.7,60.7c-1.2,1.7-1.7,4.8-1.7,6.8c0,4.4,1.1,6.5,4.4,7.4L196.5,16.6z"
/>
</g>
</svg>
